<svg id="visual" viewBox="0 0 900 600" width="900" height="600" xmlns="http://www.w3.org/2000/svg" xmlns:xlink="http://www.w3.org/1999/xlink" version="1.1"><path d="M0 55L13.7 59C27.3 63 54.7 71 82 81C109.3 91 136.7 103 163.8 100C191 97 218 79 245.2 67C272.3 55 299.7 49 327 51C354.3 53 381.7 63 409 73C436.3 83 463.7 93 491 96C518.3 99 545.7 95 573 98C600.3 101 627.7 111 654.8 114C682 117 709 113 736.2 112C763.3 111 790.7 113 818 102C845.3 91 872.7 67 886.3 55L900 43L900 0L886.3 0C872.7 0 845.3 0 818 0C790.7 0 763.3 0 736.2 0C709 0 682 0 654.8 0C627.7 0 600.3 0 573 0C545.7 0 518.3 0 491 0C463.7 0 436.3 0 409 0C381.7 0 354.3 0 327 0C299.7 0 272.3 0 245.2 0C218 0 191 0 163.8 0C136.7 0 109.3 0 82 0C54.7 0 27.3 0 13.7 0L0 0Z" fill="#ffa35e"></path><path d="M0 307L13.7 303C27.3 299 54.7 291 82 293C109.3 295 136.7 307 163.8 295C191 283 218 247 245.2 228C272.3 209 299.7 207 327 218C354.3 229 381.7 253 409 271C436.3 289 463.7 301 491 306C518.3 311 545.7 309 573 299C600.3 289 627.7 271 654.8 264C682 257 709 261 736.2 273C763.3 285 790.7 305 818 291C845.3 277 872.7 229 886.3 205L900 181L900 41L886.3 53C872.7 65 845.3 89 818 100C790.7 111 763.3 109 736.2 110C709 111 682 115 654.8 112C627.7 109 600.3 99 573 96C545.7 93 518.3 97 491 94C463.7 91 436.3 81 409 71C381.7 61 354.3 51 327 49C299.7 47 272.3 53 245.2 65C218 77 191 95 163.8 98C136.7 101 109.3 89 82 79C54.7 69 27.3 61 13.7 57L0 53Z" fill="#fc8e3b"></path><path d="M0 499L13.7 483C27.3 467 54.7 435 82 422C109.3 409 136.7 415 163.8 410C191 405 218 389 245.2 380C272.3 371 299.7 369 327 377C354.3 385 381.7 403 409 427C436.3 451 463.7 481 491 477C518.3 473 545.7 435 573 419C600.3 403 627.7 409 654.8 422C682 435 709 455 736.2 465C763.3 475 790.7 475 818 460C845.3 445 872.7 415 886.3 400L900 385L900 179L886.3 203C872.7 227 845.3 275 818 289C790.7 303 763.3 283 736.2 271C709 259 682 255 654.8 262C627.7 269 600.3 287 573 297C545.7 307 518.3 309 491 304C463.7 299 436.3 287 409 269C381.7 251 354.3 227 327 216C299.7 205 272.3 207 245.2 226C218 245 191 281 163.8 293C136.7 305 109.3 293 82 291C54.7 289 27.3 297 13.7 301L0 305Z" fill="#f7770f"></path><path d="M0 541L13.7 532C27.3 523 54.7 505 82 498C109.3 491 136.7 495 163.8 493C191 491 218 483 245.2 474C272.3 465 299.7 455 327 453C354.3 451 381.7 457 409 474C436.3 491 463.7 519 491 525C518.3 531 545.7 515 573 502C600.3 489 627.7 479 654.8 483C682 487 709 505 736.2 512C763.3 519 790.7 515 818 507C845.3 499 872.7 487 886.3 481L900 475L900 383L886.3 398C872.7 413 845.3 443 818 458C790.7 473 763.3 473 736.2 463C709 453 682 433 654.8 420C627.7 407 600.3 401 573 417C545.7 433 518.3 471 491 475C463.7 479 436.3 449 409 425C381.7 401 354.3 383 327 375C299.7 367 272.3 369 245.2 378C218 387 191 403 163.8 408C136.7 413 109.3 407 82 420C54.7 433 27.3 465 13.7 481L0 497Z" fill="#d5670f"></path><path d="M0 601L13.7 601C27.3 601 54.7 601 82 601C109.3 601 136.7 601 163.8 601C191 601 218 601 245.2 601C272.3 601 299.7 601 327 601C354.3 601 381.7 601 409 601C436.3 601 463.7 601 491 601C518.3 601 545.7 601 573 601C600.3 601 627.7 601 654.8 601C682 601 709 601 736.2 601C763.3 601 790.7 601 818 601C845.3 601 872.7 601 886.3 601L900 601L900 473L886.3 479C872.7 485 845.3 497 818 505C790.7 513 763.3 517 736.2 510C709 503 682 485 654.8 481C627.7 477 600.3 487 573 500C545.7 513 518.3 529 491 523C463.7 517 436.3 489 409 472C381.7 455 354.3 449 327 451C299.7 453 272.3 463 245.2 472C218 481 191 489 163.8 491C136.7 493 109.3 489 82 496C54.7 503 27.3 521 13.7 530L0 539Z" fill="#b5580e"></path></svg>