<?xml version="1.0" encoding="UTF-8"?>
<!-- Generated by Pixelmator Pro 3.5.11 -->
<svg width="900" height="600" viewBox="0 0 900 600" xmlns="http://www.w3.org/2000/svg">
    <path id="Trac" fill="#000000" stroke="none" d="M 0 0 L 900 0 L 900 600 L 0 600 Z"/>
    <g id="Associer">
        <g id="g1">
            <path id="path1" fill="none" stroke="#f7770f" stroke-width="13" d="M 653 393.600006 L 800.5 478.799988 L 800.5 649.200012 L 653 734.400024 L 505.5 649.200012 L 505.5 478.799988 Z"/>
        </g>
        <g id="g2">
            <path id="path2" fill="none" stroke="#f7770f" stroke-width="13" d="M 32 -65 L 95.199997 -28.5 L 95.199997 44.5 L 32 81 L -31.200001 44.5 L -31.200001 -28.5 Z"/>
        </g>
        <g id="g3">
            <path id="path3" fill="none" stroke="#f7770f" stroke-width="13" d="M 801 -19 L 887.599976 31 L 887.599976 131 L 801 181 L 714.400024 131 L 714.400024 31 Z"/>
        </g>
        <g id="g4">
            <path id="path4" fill="none" stroke="#f7770f" stroke-width="13" d="M 164 425 L 300 503.5 L 300 660.5 L 164 739 L 28 660.5 L 28 503.5 Z"/>
        </g>
        <g id="g5">
            <path id="path5" fill="none" stroke="#f7770f" stroke-width="13" d="M 478 148 L 550.700012 190 L 550.700012 274 L 478 316 L 405.299988 274 L 405.299988 190 Z"/>
        </g>
    </g>
</svg>
