<svg id="visual" viewBox="0 0 900 600" width="900" height="600" xmlns="http://www.w3.org/2000/svg" xmlns:xlink="http://www.w3.org/1999/xlink" version="1.1"><path d="M0 109L82 109L164 49L245 115L327 127L409 55L491 67L573 91L655 97L736 43L818 73L900 85L900 0L818 0L736 0L655 0L573 0L491 0L409 0L327 0L245 0L164 0L82 0L0 0Z" fill="#000000"></path><path d="M0 181L82 187L164 157L245 163L327 199L409 199L491 169L573 157L655 163L736 103L818 145L900 217L900 83L818 71L736 41L655 95L573 89L491 65L409 53L327 125L245 113L164 47L82 107L0 107Z" fill="#640000"></path><path d="M0 283L82 283L164 223L245 241L327 247L409 295L491 223L573 259L655 259L736 163L818 193L900 265L900 215L818 143L736 101L655 161L573 155L491 167L409 197L327 197L245 161L164 155L82 185L0 179Z" fill="#922200"></path><path d="M0 457L82 481L164 343L245 403L327 427L409 445L491 385L573 493L655 463L736 325L818 421L900 409L900 263L818 191L736 161L655 257L573 257L491 221L409 293L327 245L245 239L164 221L82 281L0 281Z" fill="#c54c07"></path><path d="M0 601L82 601L164 601L245 601L327 601L409 601L491 601L573 601L655 601L736 601L818 601L900 601L900 407L818 419L736 323L655 461L573 491L491 383L409 443L327 425L245 401L164 341L82 479L0 455Z" fill="#f7770f"></path></svg>