<svg id="visual" viewBox="0 0 900 600" width="900" height="600" xmlns="http://www.w3.org/2000/svg" xmlns:xlink="http://www.w3.org/1999/xlink" version="1.1"><rect x="0" y="0" width="900" height="600" fill="#000000"></rect><path d="M0 412L21.5 414.3C43 416.7 86 421.3 128.8 425.3C171.7 429.3 214.3 432.7 257.2 421.8C300 411 343 386 385.8 380.5C428.7 375 471.3 389 514.2 397C557 405 600 407 642.8 409.3C685.7 411.7 728.3 414.3 771.2 412.5C814 410.7 857 404.3 878.5 401.2L900 398L900 601L878.5 601C857 601 814 601 771.2 601C728.3 601 685.7 601 642.8 601C600 601 557 601 514.2 601C471.3 601 428.7 601 385.8 601C343 601 300 601 257.2 601C214.3 601 171.7 601 128.8 601C86 601 43 601 21.5 601L0 601Z" fill="#f7770f"></path><path d="M0 418L21.5 425.7C43 433.3 86 448.7 128.8 450.7C171.7 452.7 214.3 441.3 257.2 433.5C300 425.7 343 421.3 385.8 416.7C428.7 412 471.3 407 514.2 410.3C557 413.7 600 425.3 642.8 437.8C685.7 450.3 728.3 463.7 771.2 459.5C814 455.3 857 433.7 878.5 422.8L900 412L900 601L878.5 601C857 601 814 601 771.2 601C728.3 601 685.7 601 642.8 601C600 601 557 601 514.2 601C471.3 601 428.7 601 385.8 601C343 601 300 601 257.2 601C214.3 601 171.7 601 128.8 601C86 601 43 601 21.5 601L0 601Z" fill="#f88226"></path><path d="M0 442L21.5 441.2C43 440.3 86 438.7 128.8 438.8C171.7 439 214.3 441 257.2 452C300 463 343 483 385.8 488.7C428.7 494.3 471.3 485.7 514.2 475.8C557 466 600 455 642.8 449.5C685.7 444 728.3 444 771.2 447.3C814 450.7 857 457.3 878.5 460.7L900 464L900 601L878.5 601C857 601 814 601 771.2 601C728.3 601 685.7 601 642.8 601C600 601 557 601 514.2 601C471.3 601 428.7 601 385.8 601C343 601 300 601 257.2 601C214.3 601 171.7 601 128.8 601C86 601 43 601 21.5 601L0 601Z" fill="#f98d38"></path><path d="M0 495L21.5 493.5C43 492 86 489 128.8 492C171.7 495 214.3 504 257.2 511.8C300 519.7 343 526.3 385.8 527.3C428.7 528.3 471.3 523.7 514.2 523.8C557 524 600 529 642.8 532C685.7 535 728.3 536 771.2 527.3C814 518.7 857 500.3 878.5 491.2L900 482L900 601L878.5 601C857 601 814 601 771.2 601C728.3 601 685.7 601 642.8 601C600 601 557 601 514.2 601C471.3 601 428.7 601 385.8 601C343 601 300 601 257.2 601C214.3 601 171.7 601 128.8 601C86 601 43 601 21.5 601L0 601Z" fill="#fa9749"></path><path d="M0 528L21.5 533.7C43 539.3 86 550.7 128.8 557.3C171.7 564 214.3 566 257.2 560.7C300 555.3 343 542.7 385.8 539.8C428.7 537 471.3 544 514.2 543.3C557 542.7 600 534.3 642.8 537.7C685.7 541 728.3 556 771.2 558.7C814 561.3 857 551.7 878.5 546.8L900 542L900 601L878.5 601C857 601 814 601 771.2 601C728.3 601 685.7 601 642.8 601C600 601 557 601 514.2 601C471.3 601 428.7 601 385.8 601C343 601 300 601 257.2 601C214.3 601 171.7 601 128.8 601C86 601 43 601 21.5 601L0 601Z" fill="#faa159"></path></svg>