<?xml version="1.0" encoding="UTF-8"?>
<!-- Generated by Pixelmator Pro 3.5.11 -->
<svg width="900" height="474" viewBox="0 0 900 474" xmlns="http://www.w3.org/2000/svg">
    <g id="Associer">
        <path id="Trac" fill="#000000" stroke="none" d="M -0.353618 0.047607 L 900 0.047607 L 900 467.763794 L -0.353618 467.763794 Z"/>
        <g id="g1">
            <path id="path1" fill="#f5730a" stroke="none" d="M -0.353618 291.928497 L 128.697067 281.924561 L 256.747345 305.93399 L 385.798035 249.911987 L 513.848328 237.907272 L 642.899048 303.933228 L 770.949341 301.932434 L 900 305.93399 L 900 474 L 770.949341 474 L 642.899048 474 L 513.848328 474 L 385.798035 474 L 256.747345 474 L 128.697067 474 L -0.353618 474 Z"/>
            <path id="path2" fill="#da5b09" stroke="none" d="M -0.353618 332.94458 L 128.697067 336.946167 L 256.747345 284.92572 L 385.798035 333.945007 L 513.848328 344.94931 L 642.899048 289.927704 L 770.949341 282.924957 L 900 340.947754 L 900 474 L 770.949341 474 L 642.899048 474 L 513.848328 474 L 385.798035 474 L 256.747345 474 L 128.697067 474 L -0.353618 474 Z"/>
            <path id="path3" fill="#be4407" stroke="none" d="M -0.353618 361.955994 L 128.697067 339.947357 L 256.747345 380.96347 L 385.798035 379.963074 L 513.848328 338.94696 L 642.899048 336.946167 L 770.949341 322.940674 L 900 355.953644 L 900 474 L 770.949341 474 L 642.899048 474 L 513.848328 474 L 385.798035 474 L 256.747345 474 L 128.697067 474 L -0.353618 474 Z"/>
            <path id="path4" fill="#a32d04" stroke="none" d="M -0.353618 368.95874 L 128.697067 382.964233 L 256.747345 358.954834 L 385.798035 413.97644 L 513.848328 381.963867 L 642.899048 380.96347 L 770.949341 359.9552 L 900 382.964233 L 900 474 L 770.949341 474 L 642.899048 474 L 513.848328 474 L 385.798035 474 L 256.747345 474 L 128.697067 474 L -0.353618 474 Z"/>
            <path id="path5" fill="#871400" stroke="none" d="M -0.353618 444.988617 L 128.697067 437.98584 L 256.747345 442.987823 L 385.798035 397.970154 L 513.848328 410.97525 L 642.899048 402.972107 L 770.949341 411.975647 L 900 415.977203 L 900 474 L 770.949341 474 L 642.899048 474 L 513.848328 474 L 385.798035 474 L 256.747345 474 L 128.697067 474 L -0.353618 474 Z"/>
        </g>
    </g>
    <text id="Texte" xml:space="preserve" x="275" y="-100" font-family="Braggadocio" font-size="68" fill="#f5730a">Texte</text>
    <text id="Un-service-dassistant-IA" xml:space="preserve"><tspan x="29" y="189" font-family="Futura" font-size="27" font-weight="500" fill="#be4407" xml:space="preserve">Un service d'assistant IA</tspan><tspan x="29" y="217.804199" font-family="Futura" font-size="27" font-weight="500" fill="#be4407" xml:space="preserve">pour écoles et entreprises.</tspan></text>
    <text id="Applied" xml:space="preserve" x="29" y="138" font-family="Braggadocio" font-size="68" fill="#f5730a">Applied</text>
</svg>
