<?xml version="1.0" encoding="UTF-8"?>
<!-- Generated by Pixelmator Pro 3.5.11 -->
<svg width="900" height="600" viewBox="0 0 900 600" xmlns="http://www.w3.org/2000/svg">
    <path id="Trac" fill="#ffa35e" stroke="none" d="M 0 55 L 13.7 59 C 27.299999 63 54.700001 71 82 81 C 109.300003 91 136.699997 103 163.800003 100 C 191 97 218 79 245.199997 67 C 272.299988 55 299.700012 49 327 51 C 354.299988 53 381.700012 63 409 73 C 436.299988 83 463.700012 93 491 96 C 518.299988 99 545.700012 95 573 98 C 600.299988 101 627.700012 111 654.799988 114 C 682 117 709 113 736.200012 112 C 763.299988 111 790.700012 113 818 102 C 845.299988 91 872.700012 67 886.299988 55 L 900 43 L 900 0 L 886.299988 0 C 872.700012 0 845.299988 0 818 0 C 790.700012 0 763.299988 0 736.200012 0 C 709 0 682 0 654.799988 0 C 627.700012 0 600.299988 0 573 0 C 545.700012 0 518.299988 0 491 0 C 463.700012 0 436.299988 0 409 0 C 381.700012 0 354.299988 0 327 0 C 299.700012 0 272.299988 0 245.199997 0 C 218 0 191 0 163.800003 0 C 136.699997 0 109.300003 0 82 0 C 54.700001 0 27.299999 0 13.7 0 L 0 0 Z"/>
    <path id="path1" fill="#fc8e3b" stroke="none" d="M 0 307 L 13.7 303 C 27.299999 299 54.700001 291 82 293 C 109.300003 295 136.699997 307 163.800003 295 C 191 283 218 247 245.199997 228 C 272.299988 209 299.700012 207 327 218 C 354.299988 229 381.700012 253 409 271 C 436.299988 289 463.700012 301 491 306 C 518.299988 311 545.700012 309 573 299 C 600.299988 289 627.700012 271 654.799988 264 C 682 257 709 261 736.200012 273 C 763.299988 285 790.700012 305 818 291 C 845.299988 277 872.700012 229 886.299988 205 L 900 181 L 900 41 L 886.299988 53 C 872.700012 65 845.299988 89 818 100 C 790.700012 111 763.299988 109 736.200012 110 C 709 111 682 115 654.799988 112 C 627.700012 109 600.299988 99 573 96 C 545.700012 93 518.299988 97 491 94 C 463.700012 91 436.299988 81 409 71 C 381.700012 61 354.299988 51 327 49 C 299.700012 47 272.299988 53 245.199997 65 C 218 77 191 95 163.800003 98 C 136.699997 101 109.300003 89 82 79 C 54.700001 69 27.299999 61 13.7 57 L 0 53 Z"/>
    <path id="path2" fill="#f7770f" stroke="none" d="M 0 495 L 13.7 479 C 27.299999 463 54.700001 431 82 418 C 109.300003 405 136.699997 411 163.800003 406 C 191 401 218 385 245.199997 376 C 272.299988 367 299.700012 365 327 373 C 354.299988 381 381.700012 399 409 423 C 436.299988 447 463.700012 477 491 473 C 518.299988 469 545.700012 431 573 415 C 600.299988 399 627.700012 405 654.799988 418 C 682 431 709 451 736.200012 461 C 763.299988 471 790.700012 471 818 456 C 845.299988 441 872.700012 411 886.299988 396 L 900 381 L 900 175 L 886.299988 199 C 872.700012 223 845.299988 271 818 285 C 790.700012 299 763.299988 279 736.200012 267 C 709 255 682 251 654.799988 258 C 627.700012 265 600.299988 283 573 293 C 545.700012 303 518.299988 305 491 300 C 463.700012 295 436.299988 283 409 265 C 381.700012 247 354.299988 223 327 212 C 299.700012 201 272.299988 203 245.199997 222 C 218 241 191 277 163.800003 289 C 136.699997 301 109.300003 289 82 287 C 54.700001 285 27.299999 293 13.7 297 L 0 301 Z"/>
    <path id="path3" fill="#d5670f" stroke="none" d="M 0 537 L 13.7 528.105225 C 27.299999 519.21051 54.700001 501.421021 82 494.502899 C 109.300003 487.584747 136.699997 491.537964 163.800003 489.561371 C 191 487.584747 218 479.678314 245.199997 470.783569 C 272.299988 461.888824 299.700012 452.005798 327 450.029175 C 354.299988 448.052551 381.700012 453.982391 409 470.783569 C 436.299988 487.584747 463.700012 515.257324 491 521.187134 C 518.299988 527.116943 545.700012 511.304077 573 498.456116 C 600.299988 485.608154 627.700012 475.725098 654.799988 479.678314 C 682 483.631531 709 501.421021 736.200012 508.339172 C 763.299988 515.257324 790.700012 511.304077 818 503.397644 C 845.299988 495.491211 872.700012 483.631531 886.299988 477.701721 L 900 471.771881 L 900 380.847839 L 886.299988 395.672394 C 872.700012 410.496979 845.299988 440.146118 818 454.970703 C 790.700012 469.795288 763.299988 469.795288 736.200012 459.912231 C 709 450.029175 682 430.263062 654.799988 417.4151 C 627.700012 404.567139 600.299988 398.637329 573 414.450195 C 545.700012 430.263062 518.299988 467.818665 491 471.771881 C 463.700012 475.725098 436.299988 446.075928 409 422.356628 C 381.700012 398.637329 354.299988 380.847839 327 372.941406 C 299.700012 365.034943 272.299988 367.011536 245.199997 375.906311 C 218 384.801025 191 400.613922 163.800003 405.55545 C 136.699997 410.496979 109.300003 404.567139 82 417.4151 C 54.700001 430.263062 27.299999 461.888824 13.7 477.701721 L 0 493.514587 Z"/>
    <path id="path4" fill="#b5580e" stroke="none" d="M 0 599 L 13.7 599 C 27.299999 599 54.700001 599 82 599 C 109.300003 599 136.699997 599 163.800003 599 C 191 599 218 599 245.199997 599 C 272.299988 599 299.700012 599 327 599 C 354.299988 599 381.700012 599 409 599 C 436.299988 599 463.700012 599 491 599 C 518.299988 599 545.700012 599 573 599 C 600.299988 599 627.700012 599 654.799988 599 C 682 599 709 599 736.200012 599 C 763.299988 599 790.700012 599 818 599 C 845.299988 599 872.700012 599 886.299988 599 L 900 599 L 900 471 L 886.299988 477 C 872.700012 483 845.299988 495 818 503 C 790.700012 511 763.299988 515 736.200012 508 C 709 501 682 483 654.799988 479 C 627.700012 475 600.299988 485 573 498 C 545.700012 511 518.299988 527 491 521 C 463.700012 515 436.299988 487 409 470 C 381.700012 453 354.299988 447 327 449 C 299.700012 451 272.299988 461 245.199997 470 C 218 479 191 487 163.800003 489 C 136.699997 491 109.300003 487 82 494 C 54.700001 501 27.299999 519 13.7 528 L 0 537 Z"/>
    <text id="dynamique" xml:space="preserve" x="359" y="392" font-family="Arial Black" font-size="32" font-weight="800" fill="#000000">dynamique.</text>
    <text id="customisable-et" xml:space="preserve" x="309" y="339" font-family="Arial Black" font-size="32" font-weight="800" fill="#000000">customisable et</text>
    <text id="Un-gnrateur-dimage" xml:space="preserve" x="242" y="286" font-family="Arial Black" font-size="32" font-weight="800" fill="#000000">Un générateur d'image</text>
    <text id="Photon" xml:space="preserve" x="143" y="228" font-family="Braggadocio" font-size="133" fill="#000000">Photon</text>
</svg>
